<?xml version="1.0" encoding="utf-8"?>
<!-- Generator: Adobe Illustrator 28.1.0, SVG Export Plug-In . SVG Version: 6.00 Build 0)  -->
<svg version="1.1" xmlns="http://www.w3.org/2000/svg" xmlns:xlink="http://www.w3.org/1999/xlink" x="0px" y="0px"
	 viewBox="0 0 306.9 313.3" style="enable-background:new 0 0 306.9 313.3;" xml:space="preserve">
<style type="text/css">
	.st0{fill:none;}
</style>
<g id="Lag_1">
</g>
<g id="Lag_2">
	<g>
		<circle class="st0" cx="154.3" cy="156" r="134.3"/>
		<path d="M144.6,21.9l-2,0.2l-7-11.9l1.3,12.5l-1.8,0.2l-1.7-15.8l2.1-0.2l7,11.8l-1.3-12.4l1.8-0.2L144.6,21.9z"/>
		<path d="M158.1,21.6l-1.7,0c-0.2-0.5-0.2-1.1-0.2-1.9c-1,1.5-2.3,2.2-4,2.3c-0.9,0-1.6-0.3-2.3-0.9c-0.7-0.6-1-1.4-1-2.4
			c0-0.6,0.1-1.1,0.3-1.5c0.2-0.4,0.6-0.8,1-1.1c0.4-0.3,1-0.6,1.6-0.7c0.6-0.2,1.4-0.3,2.3-0.4l2-0.2l0-0.6c0-2-1-3-2.9-3
			c-0.4,0-1,0.1-1.7,0.3c-0.7,0.2-1.3,0.4-1.7,0.7l-0.5-1.3c1.6-0.8,3.1-1.3,4.4-1.3c2.7,0,4,1.4,4.1,4.2l0.1,5.1
			C157.8,19.9,157.9,20.8,158.1,21.6z M156,18.1l0-2.1c-1.6,0.2-2.7,0.3-3.3,0.5c-0.6,0.1-1.1,0.4-1.5,0.7s-0.6,0.8-0.6,1.4
			c0,0.5,0.2,0.9,0.6,1.3c0.4,0.3,0.8,0.5,1.4,0.5c0.6,0,1.2-0.2,1.9-0.6S155.6,18.8,156,18.1z"/>
		<path d="M171.4,22.1c-1.2,0.4-2.4,0.6-3.5,0.5c-2.1-0.2-3-1.4-2.8-3.6l0.7-7.2l-2.2-0.2l0.1-1.5l2.2,0.2l0.3-3.2l1.7,0.2l-0.3,3.2
			l4,0.4l-0.1,1.5l-4-0.4l-0.6,6.7c-0.1,0.7,0,1.3,0.3,1.7c0.3,0.4,0.7,0.7,1.2,0.7c1,0.1,1.9,0,2.9-0.4L171.4,22.1z"/>
		<path d="M184.8,25l-1.7-0.3c-0.1-0.5,0-1.1,0.2-1.9c-1.3,1.2-2.7,1.7-4.4,1.4c-0.9-0.2-1.6-0.6-2.1-1.4c-0.5-0.7-0.7-1.6-0.5-2.5
			c0.1-0.6,0.3-1,0.6-1.4c0.3-0.4,0.7-0.7,1.2-0.9c0.5-0.2,1.1-0.3,1.8-0.4c0.7-0.1,1.4,0,2.3,0.1l2,0.2l0.1-0.6
			c0.4-2-0.3-3.1-2.2-3.5c-0.4-0.1-1-0.1-1.7,0s-1.3,0.2-1.9,0.3l-0.2-1.3c1.7-0.5,3.3-0.6,4.6-0.4c2.6,0.5,3.7,2.2,3.1,4.9l-1,5
			C184.8,23.3,184.8,24.2,184.8,25z M183.4,21.2l0.4-2.1c-1.6-0.2-2.7-0.2-3.3-0.2c-0.6,0-1.2,0.1-1.6,0.4s-0.8,0.7-0.9,1.2
			c-0.1,0.5,0,1,0.3,1.4c0.3,0.4,0.7,0.6,1.3,0.7c0.6,0.1,1.3,0.1,1.9-0.2C182.2,22.2,182.9,21.8,183.4,21.2z"/>
		<path d="M199.2,18.6c-0.9-0.6-1.7-1-2.5-1.3c-0.9-0.3-1.7-0.3-2.3-0.2c-0.6,0.1-1,0.5-1.2,1c-0.1,0.3-0.1,0.6,0.1,1
			c0.2,0.3,0.6,0.7,1.3,1.1l1.5,0.9c0.7,0.4,1.2,0.9,1.6,1.3c0.4,0.4,0.6,0.9,0.7,1.4c0.1,0.5,0.1,1-0.1,1.5c-0.3,1.1-1,1.8-2.1,2.1
			c-1.1,0.4-2.3,0.3-3.7-0.1c-1.4-0.4-2.5-1-3.2-1.7l0.8-1.4c0.8,0.7,1.8,1.3,2.8,1.6c0.9,0.3,1.8,0.3,2.4,0.2
			c0.7-0.2,1.1-0.5,1.3-1.1c0.1-0.4,0.1-0.8-0.1-1.2c-0.2-0.4-0.8-0.9-1.8-1.6c-0.8-0.5-1.4-0.9-1.7-1.2c-0.4-0.3-0.7-0.6-1-0.9
			c-0.3-0.4-0.4-0.8-0.5-1.2c-0.1-0.4,0-0.8,0.1-1.3c0.3-1,1-1.6,2-1.9c1-0.3,2.2-0.3,3.6,0.2c0.9,0.3,1.9,0.7,2.9,1.4L199.2,18.6z"
			/>
		<path d="M207.1,33c-0.6,1.4-1.2,2.2-1.9,2.6c-0.7,0.4-1.6,0.3-2.8-0.2c-0.8-0.3-1.5-0.8-2.3-1.5l1-1.1c0.7,0.5,1.3,0.9,1.9,1.2
			c0.6,0.2,1.1,0.2,1.4,0c0.4-0.2,0.7-0.9,1.2-1.9l4.1-9.8l-3.2-1.3l0.6-1.4l4.8,2L207.1,33z M212.7,17.2c0.3,0.1,0.5,0.3,0.6,0.7
			c0.1,0.3,0.1,0.6,0,0.9c-0.1,0.3-0.3,0.5-0.7,0.7c-0.3,0.1-0.6,0.1-0.9,0c-0.3-0.1-0.5-0.3-0.6-0.7c-0.1-0.3-0.1-0.6,0-0.9
			s0.3-0.5,0.7-0.6C212.1,17.1,212.4,17.1,212.7,17.2z"/>
		<path d="M222.2,39.9l-1.5-0.8c0.1-0.5,0.3-1.1,0.7-1.8c-1.6,0.8-3.1,0.8-4.6,0c-0.8-0.4-1.3-1.1-1.6-1.9s-0.2-1.7,0.3-2.6
			c0.3-0.5,0.6-0.9,1-1.2s0.9-0.4,1.4-0.5c0.5-0.1,1.1,0,1.8,0.1c0.7,0.2,1.4,0.4,2.2,0.8l1.8,0.8l0.3-0.5c1-1.8,0.6-3.1-1-4
			c-0.4-0.2-0.9-0.4-1.6-0.5s-1.3-0.2-1.9-0.2l0.2-1.3c1.8,0,3.3,0.4,4.5,1c2.4,1.3,2.9,3.2,1.5,5.7l-2.4,4.5
			C222.8,38.3,222.4,39.2,222.2,39.9z M222,35.9l1-1.9c-1.5-0.6-2.5-1-3.1-1.2c-0.6-0.2-1.1-0.2-1.7-0.1c-0.5,0.1-1,0.4-1.2,0.9
			c-0.2,0.5-0.3,0.9-0.1,1.4c0.2,0.5,0.5,0.8,1,1.1c0.5,0.3,1.2,0.4,1.9,0.4S221.3,36.3,222,35.9z"/>
		<path d="M247.3,47.2c0.7,0.9,1,1.8,1,2.7c0,0.9-0.3,1.8-0.9,2.5c-0.9,1.1-2.1,1.7-3.4,1.6s-2.6-0.5-3.7-1.4l-3.5-2.9l10.2-12.2
			l3.4,2.8c1.2,1,1.9,2,2.1,3.1c0.2,1.1,0,2.1-0.8,3c-0.5,0.6-1.1,0.9-1.9,1.1C249,47.7,248.2,47.5,247.3,47.2L247.3,47.2z
			 M239.2,49.7l1.6,1.3c0.9,0.8,1.9,1.2,2.8,1.2c0.9,0,1.7-0.3,2.3-1.1c0.7-0.8,0.9-1.6,0.7-2.5c-0.2-0.9-0.8-1.8-1.8-2.6l-1.5-1.3
			L239.2,49.7z M244.3,43.6l1.7,1.4c1.7,1.4,3.1,1.6,4.2,0.3c0.5-0.6,0.6-1.2,0.4-1.8s-0.7-1.3-1.5-2l-1.8-1.5L244.3,43.6z"/>
		<path d="M253.3,65.1l-1.2-1.3l1.2-1.2c-1.8,0-3.3-0.4-4.2-1.4c-1.5-1.6-1.4-3.3,0.5-5.2l5.7-5.6l1.2,1.3l-5.4,5.3
			c-0.7,0.7-1.1,1.3-1.3,1.9c-0.1,0.6,0.1,1.1,0.6,1.7c0.8,0.8,2,1.1,3.9,1.1l6.1-6l1.2,1.3L253.3,65.1z"/>
		<path d="M268.5,64.4c1,1.3,1.4,2.6,1.1,4.1c-0.3,1.5-1.1,2.8-2.6,3.9c-1.4,1.2-2.9,1.7-4.4,1.7s-2.7-0.7-3.7-1.9
			c-1-1.3-1.4-2.6-1.1-4.1s1.2-2.8,2.6-3.9c1.4-1.2,2.9-1.7,4.4-1.7C266.2,62.4,267.4,63.1,268.5,64.4z M260,71.1
			c0.7,0.8,1.5,1.2,2.6,1.1c1.1-0.1,2.1-0.5,3.1-1.3c1.1-0.8,1.7-1.8,2-2.8c0.3-1,0.1-2-0.6-2.8c-0.7-0.9-1.5-1.2-2.6-1.2
			c-1,0.1-2.1,0.5-3.2,1.4c-1,0.8-1.7,1.7-2,2.8C259.2,69.4,259.4,70.3,260,71.1z"/>
		<path d="M270,87.4l-1-1.5l6.5-4.2c1.6-1,2.2-1.8,1.8-2.4c-0.2-0.3-0.7-0.4-1.4-0.5c-0.8,0-1.2,0-1.2,0l-7.1,4.6l-1-1.5l6.5-4.2
			c1.6-1,2.2-1.8,1.8-2.4c-0.2-0.3-0.7-0.4-1.4-0.4c-0.8,0-1.2,0-1.2,0l-7.1,4.6l-1-1.5l9.9-6.4l0.9,1.4l-1.5,1
			c0.7-0.1,1.3,0,1.9,0.2s1,0.5,1.2,0.8c0.3,0.4,0.3,0.9,0.2,1.4s-0.4,1-0.8,1.5c0.7-0.1,1.3,0,1.9,0.2s1,0.5,1.2,0.8
			c0.8,1.2,0.1,2.5-2,3.9L270,87.4z"/>
		<path d="M281.2,111.5l-0.7-1.7l12.7-5l-7,0.2l-0.6-1.6l5.2-4.6l-12.7,5l-0.7-1.7l14.8-5.8l0.9,2.2l-5.8,5.1l7.7-0.2l0.9,2.2
			L281.2,111.5z"/>
		<path d="M284.9,124.1l-0.5-1.7c0.4-0.3,1-0.5,1.8-0.7c-1.7-0.6-2.8-1.7-3.2-3.3c-0.2-0.8-0.1-1.7,0.3-2.5s1.1-1.3,2-1.6
			c0.6-0.2,1.1-0.2,1.6-0.1c0.5,0.1,0.9,0.3,1.4,0.7c0.4,0.4,0.8,0.8,1.1,1.4c0.3,0.6,0.7,1.3,1,2.1l0.7,1.9l0.5-0.2
			c1.9-0.5,2.7-1.7,2.1-3.5c-0.1-0.4-0.4-0.9-0.7-1.5c-0.4-0.6-0.7-1.1-1.1-1.5l1.1-0.8c1.2,1.3,2,2.6,2.4,4c0.7,2.6-0.3,4.3-3,5
			l-4.9,1.4C286.5,123.4,285.6,123.7,284.9,124.1z M287.7,121.2l2.1-0.6c-0.6-1.5-1-2.5-1.3-3c-0.3-0.5-0.6-1-1.1-1.3
			c-0.4-0.3-0.9-0.4-1.5-0.3c-0.5,0.1-0.9,0.4-1.1,0.9c-0.2,0.4-0.2,0.9-0.1,1.5c0.2,0.6,0.5,1.1,1,1.6
			C286.3,120.6,287,120.9,287.7,121.2z"/>
		<path d="M287.4,137l-0.3-1.7l1.7-0.3c-0.6-0.3-1.2-0.7-1.7-1.3c-0.5-0.6-0.8-1.3-0.9-2c-0.2-1.3,0.2-2.5,1.2-3.5
			c1-1,2.5-1.6,4.3-1.9c1.7-0.3,3.2-0.1,4.4,0.5c1.3,0.6,2,1.6,2.2,2.9c0.3,1.5-0.1,2.7-1.2,3.8l5.6-1l0.3,1.7L287.4,137z
			 M290.6,134.7l4.8-0.8c1.2-1.1,1.7-2.2,1.5-3.4c-0.2-1-0.7-1.6-1.7-2c-0.9-0.4-2.1-0.5-3.4-0.3c-1.3,0.2-2.4,0.7-3.2,1.4
			c-0.8,0.7-1.1,1.5-0.9,2.4c0.1,0.4,0.3,0.9,0.6,1.3s0.7,0.8,1.3,1.1S290.5,134.7,290.6,134.7z"/>
		<path d="M298.6,148.5c0.2-1,0.3-1.9,0.3-2.8c-0.1-1-0.3-1.7-0.6-2.2c-0.4-0.5-0.8-0.8-1.3-0.7c-0.3,0-0.6,0.2-0.9,0.4
			s-0.4,0.8-0.6,1.6l-0.4,1.7c-0.2,0.8-0.4,1.4-0.6,1.9c-0.3,0.5-0.6,0.9-1,1.2c-0.4,0.3-0.9,0.4-1.5,0.5c-1.1,0.1-2-0.3-2.8-1.2
			c-0.7-0.9-1.1-2.1-1.2-3.5c-0.1-1.4,0-2.6,0.4-3.6l1.5,0.2c-0.4,1-0.5,2.1-0.5,3.2c0.1,1,0.3,1.8,0.7,2.3c0.4,0.6,0.9,0.9,1.5,0.8
			c0.4,0,0.8-0.2,1.1-0.5c0.3-0.3,0.6-1.1,0.8-2.2c0.2-0.9,0.4-1.6,0.5-2c0.1-0.4,0.3-0.9,0.5-1.2c0.2-0.4,0.5-0.7,0.9-0.9
			c0.4-0.2,0.8-0.3,1.2-0.4c1-0.1,1.8,0.3,2.5,1.2s1,2,1.1,3.5c0.1,0.9,0,2-0.3,3.2L298.6,148.5z"/>
		<path d="M294.3,164.5l0.2-8.1c-1.3,0-2.4,0.3-3.3,1.1c-0.9,0.7-1.3,1.7-1.4,2.8c0,1.1,0.1,2.2,0.5,3.3l-1.4,0.3
			c-0.4-1-0.6-2.3-0.6-3.7c0-1.7,0.6-3.1,1.8-4.2s2.7-1.5,4.6-1.5c1.9,0,3.3,0.6,4.4,1.5c1.1,1,1.6,2.2,1.6,3.8
			c0,1.4-0.6,2.5-1.6,3.4c-1.1,0.9-2.4,1.3-4.2,1.3L294.3,164.5z M295.8,162.6c0.9,0,1.7-0.2,2.3-0.8c0.6-0.6,1-1.2,1-1.9
			c0-0.9-0.3-1.7-0.8-2.3c-0.6-0.6-1.4-1-2.3-1.1L295.8,162.6z"/>
		<path d="M287,177.4l0.2-1.7l7.5,0.9c1,0.1,1.8,0.1,2.3-0.2c0.5-0.3,0.8-0.8,0.9-1.5c0.1-1.1-0.4-2.3-1.6-3.7l-8.4-1.1l0.2-1.7
			l11.7,1.5l-0.2,1.7l-1.7-0.2c1.2,1.4,1.7,2.8,1.5,4.2c-0.3,2.2-1.7,3.1-4.4,2.8L287,177.4z"/>
		<path d="M260.1,239l1-1.4l11.1,8l-3.9-5.8l1-1.4l6.7,1.9l-11.1-8l1-1.4l12.9,9.4l-1.4,1.9l-7.4-2.1l4.3,6.4l-1.4,1.9L260.1,239z"
			/>
		<path d="M251.6,248.7l1.2-1.3l1.3,1.2c-0.2-1.8,0.2-3.3,1.1-4.3c1.5-1.6,3.2-1.6,5.2,0.2l6,5.3l-1.2,1.3l-5.6-5
			c-0.7-0.7-1.4-1-2-1.1s-1.1,0.1-1.6,0.7c-0.7,0.8-1,2.1-0.8,3.9l6.3,5.7l-1.2,1.3L251.6,248.7z"/>
		<path d="M242.5,257.4l3.5-3.3l9.7,10.6l2.3-2.1l1,1.1l-3.6,3.3l-9.7-10.6l-2.2,2.1L242.5,257.4z"/>
		<path d="M231.4,266.7c0.6-1.1,1.4-2.1,2.3-2.7c1.7-1.3,3.2-1,4.5,0.8l4.3,5.8l1.8-1.4l0.9,1.2l-1.8,1.4l1.9,2.6l-1.4,1l-1.9-2.6
			l-3.2,2.4L238,274l3.2-2.4l-4-5.4c-0.4-0.6-0.9-0.9-1.4-1c-0.5-0.1-1,0-1.4,0.3c-0.8,0.6-1.4,1.3-1.9,2.2L231.4,266.7z"/>
		<path d="M222.3,271.9l1.5-0.9l5.3,8.8l3-1.8l0.8,1.3l-4.5,2.7L222.3,271.9z M231.4,285.3c-0.3,0.2-0.6,0.2-0.9,0.1
			s-0.6-0.3-0.7-0.5c-0.2-0.3-0.2-0.6-0.2-0.9c0.1-0.3,0.3-0.6,0.5-0.7c0.3-0.2,0.6-0.2,0.9-0.1c0.3,0.1,0.6,0.3,0.7,0.5
			c0.2,0.3,0.2,0.6,0.1,0.9C231.9,284.9,231.7,285.1,231.4,285.3z"/>
		<path d="M206.9,279.8l1.6-0.8l3.3,7c0.8,1.7,1.5,2.4,2.1,2.1c0.3-0.2,0.5-0.6,0.6-1.4c0.1-0.8,0.1-1.2,0.1-1.2l-3.6-7.7l1.6-0.8
			l3.3,7c0.8,1.7,1.5,2.4,2.1,2.1c0.3-0.1,0.5-0.6,0.6-1.4s0.1-1.2,0.1-1.2l-3.6-7.7l1.6-0.8l5,10.6l-1.5,0.7l-0.8-1.6
			c0,0.7-0.2,1.3-0.4,1.9c-0.3,0.5-0.6,0.9-1,1.1c-0.4,0.2-0.9,0.2-1.4,0c-0.5-0.2-0.9-0.5-1.3-1c0,0.7-0.2,1.3-0.4,1.9
			s-0.6,0.9-1,1.1c-1.3,0.6-2.5-0.2-3.6-2.5L206.9,279.8z"/>
		<path d="M196.7,289.7l7.6-2.7c-0.4-1.3-1.2-2.2-2.2-2.7s-2.1-0.6-3.1-0.3c-1,0.4-2,0.9-2.9,1.7l-0.8-1.2c0.8-0.8,1.9-1.4,3.2-1.9
			c1.6-0.6,3.2-0.5,4.5,0.2c1.4,0.7,2.4,1.9,3,3.7c0.6,1.8,0.7,3.3,0.1,4.7c-0.5,1.4-1.5,2.3-2.9,2.8c-1.3,0.5-2.5,0.3-3.7-0.3
			c-1.2-0.7-2.1-1.8-2.7-3.4L196.7,289.7z M199,290.4c0.3,0.9,0.8,1.5,1.6,1.9c0.7,0.4,1.5,0.5,2.1,0.2c0.9-0.3,1.5-0.8,1.8-1.6
			c0.4-0.8,0.4-1.6,0.1-2.6L199,290.4z"/>
		<path d="M182.1,287.5l1.7-0.4l0.4,1.6c0.2-0.6,0.6-1.2,1.2-1.8c0.6-0.5,1.2-0.9,1.9-1.1c1.3-0.3,2.5,0,3.5,1c1,1,1.8,2.4,2.2,4.2
			c0.4,1.7,0.4,3.2-0.2,4.5c-0.5,1.3-1.4,2.1-2.7,2.4c-1.4,0.4-2.7,0.1-3.9-0.9l1.4,5.5l-1.7,0.4L182.1,287.5z M184.7,290.6l1.2,4.7
			c1.1,1.1,2.3,1.5,3.4,1.2c0.9-0.2,1.6-0.8,1.9-1.8c0.3-1,0.4-2.1,0-3.4c-0.3-1.3-0.8-2.3-1.6-3.1c-0.7-0.7-1.5-1-2.4-0.8
			c-0.4,0.1-0.8,0.3-1.2,0.7c-0.4,0.3-0.7,0.8-1,1.4C184.8,290.2,184.7,290.5,184.7,290.6z"/>
		<path d="M171.7,289.2l1.7-0.2l1.4,10.1l3.4-0.5l0.2,1.5l-5.2,0.7L171.7,289.2z M174.8,305.1c-0.3,0-0.6,0-0.9-0.2
			c-0.3-0.2-0.4-0.5-0.5-0.8c0-0.3,0-0.6,0.2-0.9c0.2-0.3,0.5-0.4,0.8-0.5c0.3,0,0.6,0,0.9,0.2c0.3,0.2,0.4,0.5,0.5,0.8
			c0,0.3,0,0.6-0.2,0.9C175.4,304.9,175.1,305.1,174.8,305.1z"/>
		<path d="M155.2,296.2l8.1-0.3c-0.1-1.3-0.5-2.4-1.3-3.2c-0.8-0.8-1.8-1.2-2.9-1.2c-1.1,0-2.2,0.3-3.3,0.7l-0.4-1.4
			c1-0.5,2.2-0.8,3.6-0.8c1.7-0.1,3.2,0.4,4.3,1.5c1.1,1.1,1.7,2.6,1.8,4.5c0.1,1.9-0.3,3.4-1.3,4.5c-0.9,1.1-2.1,1.8-3.6,1.8
			c-1.4,0.1-2.5-0.4-3.5-1.4c-1-1-1.5-2.3-1.5-4.1L155.2,296.2z M157.2,297.6c0,0.9,0.4,1.7,1,2.3c0.6,0.6,1.2,0.9,2,0.9
			c0.9,0,1.7-0.4,2.2-1c0.6-0.6,0.9-1.4,0.9-2.4L157.2,297.6z"/>
		<path d="M141.9,289.8l1.8,0.1l-0.1,1.7c0.4-0.6,0.9-1,1.6-1.3c0.7-0.3,1.4-0.5,2.2-0.4c1.3,0.1,2.4,0.7,3.1,2
			c0.7,1.2,1,2.8,0.9,4.6c-0.1,1.7-0.6,3.1-1.5,4.2c-0.9,1.1-2,1.6-3.3,1.5c-1.5-0.1-2.6-0.8-3.5-2l-0.3,5.7l-1.8-0.1L141.9,289.8z
			 M143.4,293.5l-0.3,4.9c0.8,1.4,1.7,2.1,2.9,2.2c1,0.1,1.8-0.3,2.4-1.2c0.6-0.8,1-1.9,1-3.2c0.1-1.4-0.1-2.5-0.6-3.4
			c-0.5-0.9-1.2-1.4-2.1-1.5c-0.4,0-0.9,0.1-1.4,0.3c-0.5,0.2-0.9,0.5-1.3,1C143.7,293.1,143.4,293.4,143.4,293.5z"/>
		<path d="M127.3,293.6l8,1.3c0.2-1.3,0-2.5-0.6-3.4c-0.6-1-1.5-1.6-2.6-1.7c-1.1-0.2-2.2-0.2-3.4,0l-0.1-1.4
			c1.1-0.3,2.3-0.3,3.7-0.1c1.7,0.3,3,1,3.9,2.3c0.9,1.3,1.2,2.9,0.9,4.7c-0.3,1.8-1,3.2-2.1,4.2s-2.4,1.3-3.9,1.1
			c-1.3-0.2-2.4-0.9-3.1-2.1c-0.7-1.2-1-2.6-0.7-4.3L127.3,293.6z M128.9,295.3c-0.1,0.9,0,1.7,0.5,2.4c0.5,0.7,1,1.1,1.7,1.2
			c0.9,0.1,1.7,0,2.4-0.5c0.7-0.5,1.1-1.2,1.4-2.2L128.9,295.3z"/>
		<path d="M114.1,294.8c0.9,0.6,1.7,1,2.6,1.2c0.9,0.2,1.7,0.3,2.3,0.1c0.6-0.2,1-0.5,1.1-1c0.1-0.3,0-0.6-0.1-1
			c-0.2-0.3-0.6-0.7-1.3-1.1l-1.5-0.9c-0.7-0.4-1.2-0.8-1.6-1.2s-0.7-0.9-0.8-1.4c-0.1-0.5-0.1-1,0-1.6c0.3-1.1,1-1.8,2-2.2
			c1.1-0.4,2.3-0.4,3.7,0c1.4,0.4,2.5,0.9,3.3,1.5l-0.7,1.4c-0.8-0.7-1.8-1.2-2.9-1.5c-0.9-0.2-1.8-0.3-2.4-0.1
			c-0.7,0.2-1.1,0.6-1.3,1.2c-0.1,0.4,0,0.8,0.2,1.2c0.2,0.4,0.8,0.9,1.8,1.5c0.8,0.5,1.4,0.9,1.8,1.1s0.7,0.5,1,0.9
			c0.3,0.4,0.5,0.7,0.6,1.2c0.1,0.4,0.1,0.8,0,1.3c-0.3,1-0.9,1.6-1.9,2c-1,0.3-2.2,0.3-3.6,0c-0.9-0.2-1.9-0.7-2.9-1.3L114.1,294.8
			z"/>
		<path d="M100.6,296.7c-0.3-0.1-0.5-0.3-0.7-0.6c-0.1-0.3-0.1-0.6,0-0.9c0.1-0.3,0.3-0.6,0.6-0.7c0.3-0.1,0.6-0.1,0.9,0
			c0.3,0.1,0.5,0.3,0.6,0.6s0.1,0.6,0,0.9c-0.1,0.3-0.3,0.5-0.6,0.7C101.2,296.8,100.9,296.8,100.6,296.7z M105.5,281.2l1.6,0.6
			l-3.6,9.6l3.2,1.2l-0.5,1.4l-4.9-1.8L105.5,281.2z"/>
		<path d="M93.8,280.9c1.2,0,1.9-0.2,2.1-0.5c0.1-0.2,0.1-0.4-0.1-0.7c-0.2-0.2-0.4-0.5-0.8-0.7l-3.6-1.7c-0.8-0.4-1.4-0.9-1.7-1.6
			c-0.3-0.6-0.2-1.3,0.2-2.1c0.6-1.2,1.6-1.9,3-2.1s2.8,0.1,4.3,0.8c1.2,0.6,2,1.3,2.5,2.2s0.6,1.7,0.2,2.4
			c-0.4,0.8-1.3,1.3-2.8,1.3c0.7,0.9,0.9,1.7,0.6,2.3c-0.4,0.7-1.3,1.1-2.9,1.2c0.4,0.6,0.6,1.3,0.6,2c0,0.7-0.1,1.3-0.4,2
			c-0.5,1-1.2,1.6-2.2,1.9c-1,0.3-2,0.2-3-0.3c-0.7-0.4-1.3-0.8-1.7-1.4l-3.4-1.1l0.8-1.5l2,1c0-0.7,0.1-1.4,0.5-2.1
			c0.5-1,1.2-1.6,2.2-1.9c1-0.3,2-0.2,3,0.3C93.4,280.7,93.6,280.8,93.8,280.9z M92.6,281.8c-0.6-0.3-1.2-0.3-1.7-0.1
			s-1,0.7-1.3,1.3c-0.3,0.7-0.4,1.3-0.3,1.9c0.2,0.6,0.5,1,1.1,1.3c0.6,0.3,1.1,0.3,1.7,0.1s1-0.6,1.4-1.3c0.3-0.6,0.4-1.2,0.2-1.8
			S93.2,282.1,92.6,281.8z M96.6,273.7c-1-0.5-2-0.7-3-0.6s-1.6,0.5-1.9,1.2c-0.3,0.7,0,1.3,1,1.8c0.3,0.2,0.9,0.4,1.8,0.8
			c0.5,0.2,1,0.4,1.3,0.6c0.1,0.1,0.4,0.1,0.9,0c0.4-0.1,0.8-0.2,1.1-0.4c0.3-0.2,0.5-0.4,0.6-0.6c0.2-0.4,0.1-0.9-0.2-1.4
			S97.3,274.1,96.6,273.7z"/>
		<path d="M79.1,267.4l1.5,0.9l-4,6.4c-0.6,0.9-0.8,1.6-0.8,2.2c0,0.6,0.4,1.1,1,1.4c0.9,0.6,2.2,0.6,4,0.1l4.5-7.2l1.5,0.9l-6.3,10
			l-1.5-0.9l0.9-1.5c-1.8,0.5-3.3,0.3-4.5-0.4c-1.9-1.2-2.1-2.9-0.7-5.1L79.1,267.4z"/>
		<path d="M64.5,263.7l6.4,5c0.8-1.1,1.2-2.2,1.1-3.3c-0.1-1.2-0.6-2.1-1.4-2.8c-0.8-0.7-1.8-1.2-3-1.6l0.6-1.3
			c1.1,0.3,2.2,0.8,3.3,1.7c1.4,1.1,2.1,2.4,2.3,3.9s-0.4,3.1-1.5,4.6c-1.1,1.5-2.4,2.4-3.9,2.6c-1.4,0.3-2.8,0-4-1
			c-1.1-0.8-1.6-1.9-1.7-3.3s0.4-2.7,1.5-4.1L64.5,263.7z M65.1,266c-0.6,0.7-0.8,1.5-0.7,2.4c0.1,0.8,0.4,1.5,0.9,1.9
			c0.7,0.6,1.5,0.8,2.3,0.7c0.8-0.1,1.6-0.5,2.2-1.2L65.1,266z"/>
		<path d="M50.4,258.3l1.7-0.7c0.3,0.8,0.7,1.4,1.1,1.8c0.4,0.4,0.8,0.6,1.4,0.7c0.6,0.1,1.2,0.1,1.9,0c0.7-0.1,1-0.2,1.1-0.2
			l5.2-5.5l1.3,1.2l-8.1,8.5l-1.3-1.2l1.6-1.7c-1.9,0.6-3.4,0.4-4.5-0.6C51.2,259.9,50.7,259.2,50.4,258.3z"/>
		<path d="M18,219.5l-1.6-3.7c-0.6-1.4-0.7-2.7-0.4-3.8c0.3-1.1,1.1-2,2.4-2.5c1.2-0.5,2.4-0.6,3.5,0c1.1,0.5,2,1.5,2.5,2.8l0.9,2.1
			l6.6-2.8l0.7,1.7L18,219.5z M23.9,215l-0.8-1.8c-0.9-2-2.1-2.6-3.8-1.9c-0.8,0.3-1.3,0.9-1.5,1.6c-0.2,0.7-0.2,1.6,0.2,2.4
			l0.8,1.9L23.9,215z"/>
		<path d="M14.8,200.5c-0.5-1.5-0.3-2.9,0.4-4.2c0.8-1.3,2.1-2.2,3.8-2.7c1.8-0.6,3.3-0.6,4.7,0c1.4,0.6,2.3,1.6,2.8,3.2
			c0.5,1.5,0.3,2.9-0.4,4.2c-0.8,1.3-2.1,2.2-3.9,2.7c-1.8,0.6-3.3,0.6-4.7,0C16.2,203.1,15.3,202.1,14.8,200.5z M25.1,197.2
			c-0.3-1-1-1.7-2.1-2c-1-0.3-2.2-0.3-3.4,0.1c-1.3,0.4-2.3,1-2.9,1.9c-0.6,0.8-0.8,1.8-0.5,2.8c0.3,1,1,1.7,2,2
			c1,0.3,2.2,0.3,3.5-0.2c1.2-0.4,2.2-1,2.9-1.9C25.3,199.2,25.4,198.3,25.1,197.2z"/>
		<path d="M10.7,181.6l1.8,0.3c-0.2,0.8-0.2,1.5-0.1,2.1c0.1,0.5,0.4,1,0.8,1.4s0.9,0.8,1.5,1.1c0.6,0.3,1,0.4,1,0.4l7.4-1.6
			l0.4,1.7L12,189.4l-0.4-1.7l2.3-0.5c-1.9-0.6-3.1-1.6-3.4-3C10.4,183.3,10.5,182.5,10.7,181.6z"/>
		<path d="M19.7,165.9c0.7,1.1,1.1,2.2,1.2,3.4c0.2,2.1-0.8,3.2-3,3.5l-7.1,0.8l0.2,2.2L9.5,176l-0.2-2.2l-3.2,0.3l-0.2-1.7l3.2-0.3
			l-0.4-4l1.5-0.2l0.4,4l6.7-0.7c0.7-0.1,1.2-0.3,1.6-0.6c0.4-0.4,0.5-0.8,0.5-1.3c-0.1-1-0.4-1.9-0.9-2.8L19.7,165.9z"/>
		<path d="M4.1,152.7l1.4,0.4c-0.2,0.8-0.3,1.6-0.3,2.3c0,0.6,0.2,1.1,0.6,1.3c0.4,0.2,1.1,0.3,2.2,0.3l0.2,0l-0.1-4l1.5,0l0.1,4
			l10.2-0.2l0,1.8l-10.2,0.2l0,3l-1.5,0l0-3l-0.4,0c-1.5,0-2.6-0.2-3.2-0.7s-0.9-1.4-0.9-2.6C3.7,154.6,3.9,153.7,4.1,152.7z"/>
		<path d="M8.5,142.5c0.1-1.6,0.8-2.8,2-3.7c1.2-0.8,2.7-1.2,4.6-1c1.9,0.2,3.3,0.8,4.3,1.8c1,1.1,1.5,2.4,1.3,4
			c-0.1,1.6-0.8,2.9-2,3.7c-1.2,0.8-2.8,1.2-4.6,1c-1.8-0.2-3.3-0.8-4.3-1.8C8.8,145.5,8.4,144.2,8.5,142.5z M19.3,143.5
			c0.1-1.1-0.3-1.9-1.1-2.6c-0.8-0.7-1.9-1.1-3.2-1.2c-1.3-0.1-2.5,0.1-3.4,0.6c-0.9,0.5-1.4,1.3-1.5,2.4c-0.1,1.1,0.3,2,1.1,2.6
			c0.8,0.7,1.9,1.1,3.3,1.2c1.3,0.1,2.4-0.1,3.4-0.6C18.7,145.4,19.2,144.6,19.3,143.5z"/>
		<path d="M23.1,126.7l-0.9,4.7l-14.1-2.7l-0.6,3L6,131.4l0.9-4.7l14.1,2.7l0.6-3L23.1,126.7z"/>
		<path d="M10.3,111.8c0.1-0.3,0.3-0.6,0.6-0.7c0.3-0.2,0.6-0.2,0.9-0.1c0.3,0.1,0.6,0.3,0.7,0.6c0.2,0.3,0.2,0.6,0.1,0.9
			c-0.1,0.3-0.3,0.5-0.6,0.7c-0.3,0.2-0.6,0.2-0.9,0.1c-0.3-0.1-0.5-0.3-0.7-0.6C10.3,112.4,10.2,112.1,10.3,111.8z M26.1,115.7
			l-0.5,1.7l-9.8-2.9l-1,3.3l-1.5-0.4l1.5-5L26.1,115.7z"/>
		<path d="M19,99.9c0.6-1.5,1.6-2.5,3-2.9s3-0.3,4.7,0.4c1.7,0.7,2.9,1.7,3.6,3c0.7,1.3,0.7,2.7,0.1,4.2c-0.6,1.5-1.6,2.5-3.1,2.9
			s-3,0.3-4.7-0.4c-1.7-0.7-2.9-1.7-3.6-3S18.4,101.4,19,99.9z M29,104.1c0.4-1,0.3-1.9-0.3-2.9s-1.5-1.6-2.7-2.1
			c-1.3-0.5-2.4-0.7-3.4-0.4c-1,0.2-1.8,0.8-2.2,1.8c-0.4,1-0.3,2,0.2,2.8c0.6,0.9,1.5,1.6,2.8,2.1c1.2,0.5,2.3,0.6,3.4,0.4
			S28.6,105.1,29,104.1z"/>
		<path d="M63.1,57.3l-6.2,6.1l-0.9-1c-0.2-3.3-0.3-5.5-0.4-6.6c-0.1-1.1-0.4-2.1-0.7-3s-0.9-1.8-1.5-2.4c-0.6-0.6-1.3-0.9-2-0.9
			c-0.7,0-1.5,0.4-2.2,1c-0.5,0.5-1.1,1.4-1.7,2.6l-1.3-1c0.5-1.1,1.2-2.1,2-3c1-1,2.1-1.5,3.3-1.6s2.2,0.4,3.2,1.4
			c0.7,0.7,1.2,1.5,1.5,2.5c0.3,1,0.6,2,0.7,3.1c0.1,1.1,0.2,3.2,0.3,6.2l4.8-4.7L63.1,57.3z"/>
		<path d="M60,38.6c1.3-1.1,2.8-1.3,4.4-0.7c1.6,0.6,3.2,1.9,4.9,3.9c1.6,2,2.5,3.8,2.8,5.5c0.2,1.7-0.3,3.1-1.7,4.2
			c-1.3,1.1-2.8,1.3-4.4,0.7c-1.6-0.6-3.2-1.9-4.9-3.9c-1.6-2-2.5-3.8-2.8-5.5C58.1,41.1,58.6,39.7,60,38.6z M69.3,50.2
			c0.9-0.7,1.2-1.6,0.9-2.8c-0.2-1.2-1.1-2.6-2.5-4.4c-1.5-1.8-2.7-2.9-3.8-3.4c-1.1-0.5-2-0.4-2.9,0.3c-0.9,0.7-1.2,1.6-0.9,2.8
			c0.3,1.2,1.1,2.6,2.5,4.4c1.4,1.8,2.7,2.9,3.8,3.4C67.5,51,68.5,50.9,69.3,50.2z M64.1,43.8c0.4-0.3,0.8-0.4,1.2-0.4
			c0.5,0,0.8,0.3,1.1,0.6c0.3,0.4,0.4,0.8,0.4,1.3c0,0.5-0.2,0.9-0.6,1.2c-0.4,0.3-0.8,0.4-1.2,0.3c-0.5-0.1-0.9-0.3-1.2-0.7
			c-0.3-0.4-0.4-0.8-0.4-1.2C63.5,44.4,63.7,44.1,64.1,43.8z"/>
		<path d="M84.6,41.1l-7.3,4.8l-0.7-1.1c0.5-3.3,0.8-5.5,0.9-6.5c0.1-1.1,0.1-2.1-0.1-3.1c-0.2-1-0.5-1.9-1-2.7
			c-0.5-0.7-1.1-1.2-1.8-1.3s-1.5,0.1-2.3,0.6c-0.6,0.4-1.3,1.1-2.1,2.2l-1.1-1.2c0.7-1,1.6-1.9,2.6-2.6c1.2-0.8,2.4-1.1,3.5-0.9
			s2.1,0.9,2.8,2c0.5,0.8,0.9,1.7,1,2.8c0.1,1,0.2,2.1,0,3.2c-0.1,1.1-0.4,3.1-0.9,6.1l5.6-3.7L84.6,41.1z"/>
		<path d="M89.7,28.5c1-0.2,1.9-0.1,2.8,0.2c0.9,0.4,1.5,1,1.9,1.7c0.6,1.2,0.7,2.5,0.2,3.9s-1.5,2.4-2.8,3
			c-1.1,0.6-2.3,0.9-3.4,0.8l-0.4-1.5c1.2,0,2.2-0.3,3.1-0.8c0.9-0.4,1.4-1.1,1.8-1.9c0.3-0.8,0.3-1.7-0.2-2.5
			c-0.4-0.8-1.1-1.3-2-1.5c-0.9-0.2-1.9,0-3,0.6l-0.4,0.2l-0.7-1.4l0.1-0.1c1-0.5,1.8-1.2,2.2-2s0.4-1.7,0-2.5
			c-0.3-0.7-0.9-1.1-1.5-1.2c-0.7-0.1-1.4,0-2.3,0.5c-0.7,0.4-1.4,1-2.1,1.9l-1-1.3c0.7-0.9,1.5-1.6,2.4-2c1.3-0.7,2.5-0.9,3.6-0.6
			c1.2,0.2,2,0.9,2.6,1.9c0.4,0.7,0.5,1.5,0.3,2.4C90.6,27.2,90.3,27.9,89.7,28.5L89.7,28.5z"/>
	</g>
	<circle cx="289.2" cy="207.5" r="4.7"/>
	<circle cx="37.8" cy="240.1" r="4.7"/>
	<circle cx="34.5" cy="75.9" r="4.7"/>
	<circle cx="111.2" cy="18.9" r="4.7"/>
	<path d="M83.8,188.2C83.9,188.2,83.9,188.2,83.8,188.2c0.1,0.7,0.8,1.1,1.4,1.1c0.6,0,1.2-0.3,1.8-0.7c6-4,8.7-12.1,7.5-19.3
		c-1.2-7.1-6.4-13-12.7-15.7c-6.4-2.8-14-2.2-20.2,0.9c-13.5,6.8-19.4,23.7-16.9,38.6c2.2,13.1,11.2,25.5,23.2,30.4
		c3.8,1.5,6.8,1.9,9.1,2.2c4,0.5,7.4,0.3,9.8,0.1c5.8-0.6,10.1-2.3,12.3-3.3c5.3-2.3,8.8-5.1,9.9-6.1c0.9-0.8,5-4.3,8.9-10.3
		c3-4.8,4.4-8.9,5.5-12.2c1.3-3.7,1.9-6.6,2.9-11.3c0.9-4.4,1.5-7.8,1.9-10.7c0.7-4.5,1.1-7.9,1.6-12.2c0.2-1.8,0.8-6.7,1.3-13.3
		c1.2-13.5,2-27,2.7-40.5c0.4-9.2,0.6-18.4,0.9-27.6c0,0,0-0.6,0-0.6c0.1,1.2,0.6,2.5,0.9,3.6c0.4,1.5,0.5,2.9,0.9,4.4
		c0.9,3.4,1.8,6.8,2.8,10.2c1.9,6.8,3.9,13.6,5.9,20.3c4.1,13.5,8.9,26.8,12.8,40.4c0.9,3.2,2,6.3,2.9,9.4
		c4.8,16.5,9.6,32.9,14.3,49.4c0.6,2.1,1.5,4.5,3.5,5.1c1.8,0.6,3.7-0.7,4.7-2.4c0.9-1.7,1.1-3.7,1.2-5.6
		c1.8-30.3-1.4-60.7-0.1-91.1c0.6-14.3,1.5-33.1,10.5-44.7c2.7-3.5,5.2-5.1,5.8-5.5c1.1-0.7,2.8-1.7,5.2-2.2
		c2.2-0.4,3.9-0.2,5.2-0.1c0.9,0.1,3.4,0.5,6.3,1.9c3.6,1.8,5.9,4.1,7.4,5.8c3,3.2,4.5,6.1,4.9,6.9c0.4,0.7,1.8,3.7,2.7,7.9
		c0.1,0.4,0.4,2.1,0.6,4.9c0.4,5.7-0.2,10.2-0.4,11.2c-1.9,13.1-9,25.9-17.5,35.6c-8.3,9.5-18.8,16.9-30.4,21.3
		c0,0.4,0.1,0.8,0.1,1.3c0-0.2,6-2.5,6.6-2.8c2.2-1.1,4.4-2.3,6.6-3.6c4.3-2.6,8.3-5.6,12-9.1c7.2-6.7,13.5-14.3,18-23.3
		c0.8-1.5,1.5-3.1,2.1-4.7c0.7-1.6,1.1-2.9,1.6-4.2c1-2.7,1.4-4.1,1.9-6c0.5-2.1,0.7-3.7,0.9-5.6c1.4-10.8,0.5-22-7.1-30.3
		c-7.6-8.3-19.8-11.4-29.7-6.3c-0.8,0.4-2.3,1.2-4.1,2.6c-2.1,1.6-3.4,3-4.4,4.1c-7.5,8.2-9.9,18.2-11.1,29.2c-1.8,16-2.1,32-1.4,48
		c0.3,7.3,0.6,18,0.9,33.6l0,2l-1.6-4.6l-2.1-6.9l-2.7-8.8l-0.1-0.2l-16.3-52.6l-11.8-35.5L134.4,58l-0.9-2.6c0-0.2-0.1-0.4-0.2-0.6
		c-0.5-0.9-1.9-0.9-2.3-0.9c-0.9,0-2.3,0.4-2.7,1.4c-0.3,0.7-0.2,1.8-0.3,2.6c-0.1,0.8-0.2,1.5-0.2,2.3c-0.2,1.9-0.4,3.8-0.6,5.7
		c-1.4,14.1-2.7,28.2-3.5,42.4c-0.4,7.1-0.7,14.2-1.1,21.3c-1.1,20.8-1.9,42.3-7.4,62.4c-4,14.8-12.2,28-27.6,31.3
		c-2.4,0.5-4.8,0.7-7.2,0.7c-12-0.1-22.8-6.5-29.1-17.2c-4.4-7.5-6.3-16.5-5.4-25.2c0.8-7.6,3.7-15.1,8.8-20.6s12.6-8.7,19.9-7.9
		c7.3,0.8,14.2,5.9,16.7,13.1c2.5,7.2,0,16.1-6.2,20.2C84.6,186.8,83.8,187.4,83.8,188.2z"/>
	<path d="M177.3,166.4c0,0.4,0,0.7,0,1.1c-0.5,0-1,0.1-1.6,0.1c-2.5,0.2-3.3,0.2-3.9,0.2c-0.5,0-1,0-1.2,0l-0.2-0.5
		c0.4,0,0.7,0,0.9,0c3.2-0.1,4.6-0.4,4.9-0.4c0.3-0.1,0.6-0.1,0.7-0.1L177.3,166.4z"/>
	<path d="M162.2,167.4c0.1,0.1,0.2,0.3,0.2,0.4c0-0.1-3.5-0.1-3.8-0.1c-1.4,0-2.8-0.1-4.2-0.2c-2.8-0.2-5.5-0.4-8.2-0.7
		c-5.2-0.6-10.3-1.7-15.1-2.9c-0.6-0.2-1.3-0.3-1.9-0.5l0.2-0.6c0.2,0.1,0.6,0.1,1,0.2C140.3,165.6,151.1,167.3,162.2,167.4z"/>
	<path d="M121.1,160.6l-0.1,0.4c-0.3-0.1-1.1-0.4-1.6-0.6c-0.5-0.2-1.5-0.6-2.6-1.1c-1.4-0.6-2.5-1.2-3.2-1.6
		c-0.5-0.3-2.3-1.2-4.4-2.6c-1.1-0.8-2.6-1.7-4.1-3c-7.3-6.2-9-13.7-4.2-20c1-1.4,2.5-2.7,4.2-3.9c6.3-4.4,16.7-7.3,28.1-7.5
		c-0.1,0.2-0.1,0.3-0.2,0.5c-2.9-0.1-5.6,0.1-8.3,0.5c-9,1.3-14.5,4.1-16.5,5.2c-0.9,0.5-3.9,2.3-6.2,5.1c-2.5,3.1-2.7,5.8-2.8,7.3
		c-0.1,2.2,0.4,3.8,0.5,4.2c0.7,2.1,1.8,3.6,2.5,4.5c0.5,0.6,1.6,2,3.5,3.7c0.8,0.7,3.7,3.2,8.9,5.9c2,1.1,3.9,1.9,5.2,2.4
		L121.1,160.6z"/>
	<path d="M133.7,120.7c-0.2,0-0.4,0-0.6,0c20.8-1,41.6,2.6,61.3,9.1c13.1,4.3,26,10.1,37.3,18c16.1,11.2,30.8,26.6,28.1,47.8
		c-3.2,25.4-29.2,42.8-52.3,48.4c-3.2,0.8-6.5,1.4-9.8,1.8c-1.3,0.2-2.7,0.3-4,0.4c-6.4,0.5-12.9,0.1-19.2-1.2
		c-12.2-2.6-23.2-9.1-30.2-19.5c-0.7-1.1-1.4-2.1-2-3.2c-5.8-10.7-6.8-23.9-2.7-35.3c3.1-8.7,9.1-16.3,16.7-21.5
		c14.1-9.7,33.6-10.7,48.6-2.5c2.1,1.1,4.1,2.5,5.2,4.6c0.6,1.1,0.9,2.6-0.1,3.6c-0.4,0.4-1.1,0.6-1.6,0.3c-0.3-0.1-0.5-0.4-0.7-0.6
		c-3.2-4-6-6.7-10.9-8.6c-9.5-3.7-20.5-3.7-30,0c-15.1,5.9-27.1,22.1-28,38.3c-0.9,14.8,8.7,27.7,21.1,34.7c9.4,5.3,20.5,5,30.8,3.4
		c10.9-1.8,21-5.8,30.6-11.3c10.5-6,19.5-14.1,23.4-25.8c7.3-21.8-5.7-43.4-23.4-55.5c-8.1-5.6-17.2-9.9-26.4-13.3
		C175.5,125.2,154.6,122.1,133.7,120.7z"/>
</g>
</svg>
